<svg width="28" height="32" viewBox="0 0 28 32" fill="none" xmlns="http://www.w3.org/2000/svg">
<path d="M14 31.5L0 23.6873V7.81266L14 0L28 7.81266V23.6873L14 31.5ZM14 28.4664L25.3456 22.0251V9.47493L14 2.99209L2.65443 9.47493V22.0251L14 28.4664ZM13.9572 24.6016C12.2732 24.6016 10.7176 24.1999 9.29052 23.3964C7.89195 22.593 6.7788 21.5125 5.95107 20.155C5.12334 18.7698 4.70948 17.2599 4.70948 15.6253C4.70948 13.9908 5.12334 12.4947 5.95107 11.1372C6.7788 9.77968 7.89195 8.69921 9.29052 7.89578C10.7176 7.06464 12.2732 6.64908 13.9572 6.64908C15.6412 6.64908 17.1825 7.06464 18.581 7.89578C19.9796 8.69921 21.0928 9.77968 21.9205 11.1372C22.7768 12.4947 23.2049 13.9908 23.2049 15.6253C23.2049 17.2599 22.791 18.7559 21.9633 20.1135C21.1356 21.471 20.0224 22.5653 18.6239 23.3964C17.2253 24.1999 15.6697 24.6016 13.9572 24.6016ZM13.9572 22.2744C15.213 22.2744 16.3547 21.9697 17.3823 21.3602C18.4098 20.7507 19.2375 19.9472 19.8654 18.9499C20.4934 17.9248 20.8073 16.8166 20.8073 15.6253C20.8073 14.4063 20.4934 13.2982 19.8654 12.3008C19.2375 11.3034 18.4098 10.5 17.3823 9.8905C16.3547 9.281 15.213 8.97625 13.9572 8.97625C12.7299 8.97625 11.5882 9.281 10.5321 9.8905C9.50459 10.5 8.67686 11.3034 8.04893 12.3008C7.421 13.2982 7.10703 14.4063 7.10703 15.6253C7.10703 16.8166 7.421 17.9248 8.04893 18.9499C8.67686 19.9472 9.50459 20.7507 10.5321 21.3602C11.5882 21.9697 12.7299 22.2744 13.9572 22.2744Z" fill="white"/>
</svg>
