<svg width="1805" height="957" viewBox="0 0 1805 957" fill="none" xmlns="http://www.w3.org/2000/svg">
<rect x="448" y="238" width="384" height="608" rx="6" stroke="currentColor" stroke-width="4" stroke-linecap="round" stroke-dasharray="16 10"/>
<path d="M460 205.943C458.24 205.943 456.707 205.623 455.4 204.983C454.12 204.316 453.053 203.37 452.2 202.143C451.373 200.916 450.76 199.41 450.36 197.623C449.96 195.836 449.76 193.796 449.76 191.503C449.76 189.236 449.96 187.21 450.36 185.423C450.76 183.61 451.373 182.09 452.2 180.863C453.053 179.636 454.12 178.703 455.4 178.063C456.707 177.396 458.24 177.063 460 177.063C461.76 177.063 463.28 177.396 464.56 178.063C465.867 178.703 466.933 179.636 467.76 180.863C468.613 182.09 469.24 183.61 469.64 185.423C470.04 187.21 470.24 189.236 470.24 191.503C470.24 193.796 470.04 195.836 469.64 197.623C469.24 199.41 468.613 200.916 467.76 202.143C466.933 203.37 465.867 204.316 464.56 204.983C463.28 205.623 461.76 205.943 460 205.943ZM460 202.223C462 202.223 463.413 201.476 464.24 199.983C465.067 198.463 465.48 196.41 465.48 193.823V189.143C465.48 186.583 465.067 184.556 464.24 183.063C463.413 181.543 462 180.783 460 180.783C458 180.783 456.587 181.543 455.76 183.063C454.933 184.556 454.52 186.583 454.52 189.143V193.863C454.52 196.423 454.933 198.463 455.76 199.983C456.587 201.476 458 202.223 460 202.223ZM474.464 205.463V177.543H484.904C487.571 177.543 489.598 178.29 490.984 179.783C492.398 181.276 493.104 183.33 493.104 185.943C493.104 188.556 492.398 190.61 490.984 192.103C489.598 193.596 487.571 194.343 484.904 194.343H478.944V205.463H474.464ZM478.944 190.623H484.224C486.998 190.623 488.384 189.343 488.384 186.783V185.063C488.384 182.53 486.998 181.263 484.224 181.263H478.944V190.623ZM497.649 205.463V177.543H515.129V181.303H502.129V189.423H514.649V193.183H502.129V201.703H515.129V205.463H497.649ZM524.473 183.983H524.113V205.463H520.193V177.543H525.953L534.153 199.023H534.513V177.543H538.433V205.463H532.673L524.473 183.983ZM553.218 205.943C549.671 205.943 547.031 204.69 545.298 202.183C543.591 199.676 542.738 196.116 542.738 191.503C542.738 186.89 543.591 183.33 545.298 180.823C547.031 178.316 549.671 177.063 553.218 177.063C554.578 177.063 555.751 177.25 556.738 177.623C557.751 177.97 558.618 178.463 559.338 179.103C560.058 179.716 560.658 180.45 561.138 181.303C561.644 182.13 562.058 183.023 562.378 183.983L558.338 185.343C558.124 184.703 557.884 184.103 557.618 183.543C557.351 182.983 557.018 182.503 556.618 182.103C556.218 181.703 555.738 181.383 555.178 181.143C554.644 180.903 553.978 180.783 553.178 180.783C551.204 180.783 549.764 181.543 548.858 183.063C547.951 184.556 547.498 186.583 547.498 189.143V193.863C547.498 196.423 547.951 198.463 548.858 199.983C549.764 201.476 551.204 202.223 553.178 202.223C553.978 202.223 554.644 202.103 555.178 201.863C555.738 201.623 556.218 201.303 556.618 200.903C557.018 200.503 557.351 200.023 557.618 199.463C557.884 198.903 558.124 198.303 558.338 197.663L562.378 199.023C562.058 199.983 561.644 200.89 561.138 201.743C560.658 202.57 560.058 203.303 559.338 203.943C558.618 204.556 557.751 205.05 556.738 205.423C555.751 205.77 554.578 205.943 553.218 205.943ZM575.522 205.943C573.762 205.943 572.229 205.623 570.922 204.983C569.642 204.316 568.575 203.37 567.722 202.143C566.895 200.916 566.282 199.41 565.882 197.623C565.482 195.836 565.282 193.796 565.282 191.503C565.282 189.236 565.482 187.21 565.882 185.423C566.282 183.61 566.895 182.09 567.722 180.863C568.575 179.636 569.642 178.703 570.922 178.063C572.229 177.396 573.762 177.063 575.522 177.063C577.282 177.063 578.802 177.396 580.082 178.063C581.389 178.703 582.455 179.636 583.282 180.863C584.135 182.09 584.762 183.61 585.162 185.423C585.562 187.21 585.762 189.236 585.762 191.503C585.762 193.796 585.562 195.836 585.162 197.623C584.762 199.41 584.135 200.916 583.282 202.143C582.455 203.37 581.389 204.316 580.082 204.983C578.802 205.623 577.282 205.943 575.522 205.943ZM575.522 202.223C577.522 202.223 578.935 201.476 579.762 199.983C580.589 198.463 581.002 196.41 581.002 193.823V189.143C581.002 186.583 580.589 184.556 579.762 183.063C578.935 181.543 577.522 180.783 575.522 180.783C573.522 180.783 572.109 181.543 571.282 183.063C570.455 184.556 570.042 186.583 570.042 189.143V193.863C570.042 196.423 570.455 198.463 571.282 199.983C572.109 201.476 573.522 202.223 575.522 202.223ZM593.786 183.983H593.426V205.463H589.506V177.543H595.266L603.466 199.023H603.826V177.543H607.746V205.463H601.986L593.786 183.983ZM623.971 181.303V205.463H619.491V181.303H610.731V177.543H632.731V181.303H623.971ZM640.635 205.463H636.195V177.543H646.635C649.302 177.543 651.328 178.29 652.715 179.783C654.128 181.276 654.835 183.33 654.835 185.943C654.835 188.076 654.315 189.836 653.275 191.223C652.235 192.61 650.742 193.463 648.795 193.783L655.235 205.463H650.275L644.355 194.183H640.635V205.463ZM645.995 190.583C648.768 190.583 650.155 189.316 650.155 186.783V185.063C650.155 182.53 648.768 181.263 645.995 181.263H640.635V190.583H645.995ZM667.939 205.943C666.179 205.943 664.646 205.623 663.339 204.983C662.059 204.316 660.993 203.37 660.139 202.143C659.313 200.916 658.699 199.41 658.299 197.623C657.899 195.836 657.699 193.796 657.699 191.503C657.699 189.236 657.899 187.21 658.299 185.423C658.699 183.61 659.313 182.09 660.139 180.863C660.993 179.636 662.059 178.703 663.339 178.063C664.646 177.396 666.179 177.063 667.939 177.063C669.699 177.063 671.219 177.396 672.499 178.063C673.806 178.703 674.873 179.636 675.699 180.863C676.553 182.09 677.179 183.61 677.579 185.423C677.979 187.21 678.179 189.236 678.179 191.503C678.179 193.796 677.979 195.836 677.579 197.623C677.179 199.41 676.553 200.916 675.699 202.143C674.873 203.37 673.806 204.316 672.499 204.983C671.219 205.623 669.699 205.943 667.939 205.943ZM667.939 202.223C669.939 202.223 671.353 201.476 672.179 199.983C673.006 198.463 673.419 196.41 673.419 193.823V189.143C673.419 186.583 673.006 184.556 672.179 183.063C671.353 181.543 669.939 180.783 667.939 180.783C665.939 180.783 664.526 181.543 663.699 183.063C662.873 184.556 662.459 186.583 662.459 189.143V193.863C662.459 196.423 662.873 198.463 663.699 199.983C664.526 201.476 665.939 202.223 667.939 202.223ZM683.364 205.463V177.543H687.844V201.703H700.564V205.463H683.364Z" fill="currentColor"/>
<path fill-rule="evenodd" clip-rule="evenodd" d="M555.92 395C555.803 396.019 555.745 397.04 555.745 398C555.745 398.96 555.803 399.981 555.92 401H564.08C564.197 399.981 564.255 398.96 564.255 398C564.255 397.04 564.197 396.019 564.08 395H555.92ZM553.908 395C553.798 396.028 553.745 397.046 553.745 398C553.745 398.954 553.798 399.972 553.908 401H549.417C549.141 400.026 549 399.016 549 398C549 396.984 549.141 395.974 549.417 395H553.908ZM556.232 393H563.768C563.587 392.089 563.354 391.214 563.067 390.422C562.665 389.308 562.179 388.423 561.637 387.831C561.109 387.255 560.571 387 560 387C559.429 387 558.891 387.255 558.363 387.831C557.821 388.423 557.335 389.308 556.933 390.422C556.646 391.214 556.413 392.089 556.232 393ZM555.954 387.771C555.602 388.375 555.304 389.044 555.052 389.741C554.687 390.75 554.404 391.861 554.196 393H550.202C550.725 391.975 551.406 391.038 552.222 390.222C553.243 389.2 554.456 388.39 555.79 387.837C555.845 387.815 555.899 387.793 555.954 387.771ZM547.809 393.485C547.866 393.331 547.926 393.177 547.99 393.025C548.643 391.448 549.6 390.015 550.808 388.808C552.015 387.6 553.448 386.643 555.025 385.99C556.602 385.336 558.293 385 560 385C561.707 385 563.398 385.336 564.975 385.99C566.552 386.643 567.985 387.6 569.192 388.808C570.4 390.015 571.357 391.448 572.01 393.025C572.074 393.177 572.134 393.331 572.191 393.485C572.259 393.598 572.305 393.726 572.324 393.862C572.771 395.194 573 396.591 573 398C573 399.409 572.771 400.806 572.324 402.138C572.305 402.274 572.259 402.402 572.191 402.515C572.134 402.669 572.074 402.823 572.01 402.975C571.357 404.552 570.4 405.985 569.192 407.192C567.985 408.4 566.552 409.357 564.975 410.01C563.398 410.664 561.707 411 560 411C558.293 411 556.602 410.664 555.025 410.01C553.448 409.357 552.015 408.4 550.808 407.192C549.6 405.985 548.643 404.552 547.99 402.975C547.926 402.823 547.866 402.669 547.809 402.515C547.741 402.402 547.695 402.274 547.676 402.138C547.229 400.806 547 399.409 547 398C547 396.591 547.229 395.194 547.676 393.862C547.695 393.726 547.741 393.598 547.809 393.485ZM550.202 403C550.725 404.025 551.406 404.962 552.222 405.778C553.243 406.8 554.456 407.61 555.79 408.163C555.845 408.185 555.899 408.207 555.954 408.229C555.602 407.625 555.304 406.956 555.052 406.259C554.687 405.25 554.404 404.139 554.196 403H550.202ZM556.232 403C556.413 403.911 556.646 404.786 556.933 405.578C557.335 406.692 557.821 407.577 558.363 408.169C558.891 408.745 559.429 409 560 409C560.571 409 561.109 408.745 561.637 408.169C562.179 407.577 562.665 406.692 563.067 405.578C563.354 404.786 563.587 403.911 563.768 403H556.232ZM565.804 403C565.596 404.139 565.313 405.25 564.948 406.259C564.696 406.956 564.398 407.625 564.046 408.229C564.101 408.207 564.155 408.185 564.21 408.163C565.544 407.61 566.757 406.8 567.778 405.778C568.594 404.962 569.275 404.025 569.798 403H565.804ZM570.583 401C570.859 400.026 571 399.016 571 398C571 396.984 570.859 395.974 570.583 395H566.092C566.202 396.028 566.255 397.046 566.255 398C566.255 398.954 566.202 399.972 566.092 401H570.583ZM565.804 393H569.798C569.275 391.975 568.594 391.038 567.778 390.222C566.757 389.2 565.544 388.39 564.21 387.837C564.155 387.815 564.101 387.793 564.046 387.771C564.398 388.375 564.696 389.044 564.948 389.741C565.313 390.75 565.596 391.861 565.804 393Z" fill="currentColor"/>
<rect x="528" y="366" width="224" height="64" rx="6" stroke="currentColor" stroke-width="4" stroke-linecap="round"/>
<path d="M582.992 409.99L591.08 388.438H593.408L585.32 409.99H582.992Z" fill="currentColor"/>
<path fill-rule="evenodd" clip-rule="evenodd" d="M555.92 587C555.803 588.019 555.745 589.04 555.745 590C555.745 590.96 555.803 591.981 555.92 593H564.08C564.197 591.981 564.255 590.96 564.255 590C564.255 589.04 564.197 588.019 564.08 587H555.92ZM553.908 587C553.798 588.028 553.745 589.046 553.745 590C553.745 590.954 553.798 591.972 553.908 593H549.417C549.141 592.026 549 591.016 549 590C549 588.984 549.141 587.974 549.417 587H553.908ZM556.232 585H563.768C563.587 584.089 563.354 583.214 563.067 582.422C562.665 581.308 562.179 580.423 561.637 579.831C561.109 579.255 560.571 579 560 579C559.429 579 558.891 579.255 558.363 579.831C557.821 580.423 557.335 581.308 556.933 582.422C556.646 583.214 556.413 584.089 556.232 585ZM555.954 579.771C555.602 580.375 555.304 581.044 555.052 581.741C554.687 582.75 554.404 583.861 554.196 585H550.202C550.725 583.975 551.406 583.038 552.222 582.222C553.243 581.2 554.456 580.39 555.79 579.837C555.845 579.815 555.899 579.793 555.954 579.771ZM547.809 585.485C547.866 585.331 547.926 585.177 547.99 585.025C548.643 583.448 549.6 582.015 550.808 580.808C552.015 579.6 553.448 578.643 555.025 577.99C556.602 577.336 558.293 577 560 577C561.707 577 563.398 577.336 564.975 577.99C566.552 578.643 567.985 579.6 569.192 580.808C570.4 582.015 571.357 583.448 572.01 585.025C572.074 585.177 572.134 585.331 572.191 585.485C572.259 585.598 572.305 585.726 572.324 585.862C572.771 587.194 573 588.591 573 590C573 591.409 572.771 592.806 572.324 594.138C572.305 594.274 572.259 594.402 572.191 594.515C572.134 594.669 572.074 594.823 572.01 594.975C571.357 596.552 570.4 597.985 569.192 599.192C567.985 600.4 566.552 601.357 564.975 602.01C563.398 602.664 561.707 603 560 603C558.293 603 556.602 602.664 555.025 602.01C553.448 601.357 552.015 600.4 550.808 599.192C549.6 597.985 548.643 596.552 547.99 594.975C547.926 594.823 547.866 594.669 547.809 594.515C547.741 594.402 547.695 594.274 547.676 594.138C547.229 592.806 547 591.409 547 590C547 588.591 547.229 587.194 547.676 585.862C547.695 585.726 547.741 585.598 547.809 585.485ZM550.202 595C550.725 596.025 551.406 596.962 552.222 597.778C553.243 598.8 554.456 599.61 555.79 600.163C555.845 600.185 555.899 600.207 555.954 600.229C555.602 599.625 555.304 598.956 555.052 598.259C554.687 597.25 554.404 596.139 554.196 595H550.202ZM556.232 595C556.413 595.911 556.646 596.786 556.933 597.578C557.335 598.692 557.821 599.577 558.363 600.169C558.891 600.745 559.429 601 560 601C560.571 601 561.109 600.745 561.637 600.169C562.179 599.577 562.665 598.692 563.067 597.578C563.354 596.786 563.587 595.911 563.768 595H556.232ZM565.804 595C565.596 596.139 565.313 597.25 564.948 598.259C564.696 598.956 564.398 599.625 564.046 600.229C564.101 600.207 564.155 600.185 564.21 600.163C565.544 599.61 566.757 598.8 567.778 597.778C568.594 596.962 569.275 596.025 569.798 595H565.804ZM570.583 593C570.859 592.026 571 591.016 571 590C571 588.984 570.859 587.974 570.583 587H566.092C566.202 588.028 566.255 589.046 566.255 590C566.255 590.954 566.202 591.972 566.092 593H570.583ZM565.804 585H569.798C569.275 583.975 568.594 583.038 567.778 582.222C566.757 581.2 565.544 580.39 564.21 579.837C564.155 579.815 564.101 579.793 564.046 579.771C564.398 580.375 564.696 581.044 564.948 581.741C565.313 582.75 565.596 583.861 565.804 585Z" fill="currentColor"/>
<rect x="528" y="558" width="224" height="64" rx="6" stroke="currentColor" stroke-width="4" stroke-linecap="round"/>
<path d="M582.992 601.99L591.08 580.438H593.408L585.32 601.99H582.992ZM605.615 590.662L605.687 585.622H605.495L602.135 594.238L598.775 585.622H598.583L598.655 590.662V598.678H596.279V581.926H599.567L602.135 588.574H602.303L604.895 581.926H607.991V598.678H605.615V590.662ZM616.549 598.966C614.421 598.966 612.837 598.214 611.797 596.71C610.773 595.206 610.261 593.07 610.261 590.302C610.261 587.534 610.773 585.398 611.797 583.894C612.837 582.39 614.421 581.638 616.549 581.638C617.365 581.638 618.069 581.75 618.661 581.974C619.269 582.182 619.789 582.478 620.221 582.862C620.653 583.23 621.013 583.67 621.301 584.182C621.605 584.678 621.853 585.214 622.045 585.79L619.621 586.606C619.493 586.222 619.349 585.862 619.189 585.526C619.029 585.19 618.829 584.902 618.589 584.662C618.349 584.422 618.061 584.23 617.725 584.086C617.405 583.942 617.005 583.87 616.525 583.87C615.341 583.87 614.477 584.326 613.933 585.238C613.389 586.134 613.117 587.35 613.117 588.886V591.718C613.117 593.254 613.389 594.478 613.933 595.39C614.477 596.286 615.341 596.734 616.525 596.734C617.005 596.734 617.405 596.662 617.725 596.518C618.061 596.374 618.349 596.182 618.589 595.942C618.829 595.702 619.029 595.414 619.189 595.078C619.349 594.742 619.493 594.382 619.621 593.998L622.045 594.814C621.853 595.39 621.605 595.934 621.301 596.446C621.013 596.942 620.653 597.382 620.221 597.766C619.789 598.134 619.269 598.43 618.661 598.654C618.069 598.862 617.365 598.966 616.549 598.966ZM624.82 598.678V581.926H631.084C632.684 581.926 633.9 582.374 634.732 583.27C635.58 584.166 636.004 585.398 636.004 586.966C636.004 588.534 635.58 589.766 634.732 590.662C633.9 591.558 632.684 592.006 631.084 592.006H627.508V598.678H624.82ZM627.508 589.774H630.676C632.34 589.774 633.172 589.006 633.172 587.47V586.438C633.172 584.918 632.34 584.158 630.676 584.158H627.508V589.774Z" fill="currentColor"/>
<path fill-rule="evenodd" clip-rule="evenodd" d="M555.92 491C555.803 492.019 555.745 493.04 555.745 494C555.745 494.96 555.803 495.981 555.92 497H564.08C564.197 495.981 564.255 494.96 564.255 494C564.255 493.04 564.197 492.019 564.08 491H555.92ZM553.908 491C553.798 492.028 553.745 493.046 553.745 494C553.745 494.954 553.798 495.972 553.908 497H549.417C549.141 496.026 549 495.016 549 494C549 492.984 549.141 491.974 549.417 491H553.908ZM556.232 489H563.768C563.587 488.089 563.354 487.214 563.067 486.422C562.665 485.308 562.179 484.423 561.637 483.831C561.109 483.255 560.571 483 560 483C559.429 483 558.891 483.255 558.363 483.831C557.821 484.423 557.335 485.308 556.933 486.422C556.646 487.214 556.413 488.089 556.232 489ZM555.954 483.771C555.602 484.375 555.304 485.044 555.052 485.741C554.687 486.75 554.404 487.861 554.196 489H550.202C550.725 487.975 551.406 487.038 552.222 486.222C553.243 485.2 554.456 484.39 555.79 483.837C555.845 483.815 555.899 483.793 555.954 483.771ZM547.809 489.485C547.866 489.331 547.926 489.177 547.99 489.025C548.643 487.448 549.6 486.015 550.808 484.808C552.015 483.6 553.448 482.643 555.025 481.99C556.602 481.336 558.293 481 560 481C561.707 481 563.398 481.336 564.975 481.99C566.552 482.643 567.985 483.6 569.192 484.808C570.4 486.015 571.357 487.448 572.01 489.025C572.074 489.177 572.134 489.331 572.191 489.485C572.259 489.598 572.305 489.726 572.324 489.862C572.771 491.194 573 492.591 573 494C573 495.409 572.771 496.806 572.324 498.138C572.305 498.274 572.259 498.402 572.191 498.515C572.134 498.669 572.074 498.823 572.01 498.975C571.357 500.552 570.4 501.985 569.192 503.192C567.985 504.4 566.552 505.357 564.975 506.01C563.398 506.664 561.707 507 560 507C558.293 507 556.602 506.664 555.025 506.01C553.448 505.357 552.015 504.4 550.808 503.192C549.6 501.985 548.643 500.552 547.99 498.975C547.926 498.823 547.866 498.669 547.809 498.515C547.741 498.402 547.695 498.274 547.676 498.138C547.229 496.806 547 495.409 547 494C547 492.591 547.229 491.194 547.676 489.862C547.695 489.726 547.741 489.598 547.809 489.485ZM550.202 499C550.725 500.025 551.406 500.962 552.222 501.778C553.243 502.8 554.456 503.61 555.79 504.163C555.845 504.185 555.899 504.207 555.954 504.229C555.602 503.625 555.304 502.956 555.052 502.259C554.687 501.25 554.404 500.139 554.196 499H550.202ZM556.232 499C556.413 499.911 556.646 500.786 556.933 501.578C557.335 502.692 557.821 503.577 558.363 504.169C558.891 504.745 559.429 505 560 505C560.571 505 561.109 504.745 561.637 504.169C562.179 503.577 562.665 502.692 563.067 501.578C563.354 500.786 563.587 499.911 563.768 499H556.232ZM565.804 499C565.596 500.139 565.313 501.25 564.948 502.259C564.696 502.956 564.398 503.625 564.046 504.229C564.101 504.207 564.155 504.185 564.21 504.163C565.544 503.61 566.757 502.8 567.778 501.778C568.594 500.962 569.275 500.025 569.798 499H565.804ZM570.583 497C570.859 496.026 571 495.016 571 494C571 492.984 570.859 491.974 570.583 491H566.092C566.202 492.028 566.255 493.046 566.255 494C566.255 494.954 566.202 495.972 566.092 497H570.583ZM565.804 489H569.798C569.275 487.975 568.594 487.038 567.778 486.222C566.757 485.2 565.544 484.39 564.21 483.837C564.155 483.815 564.101 483.793 564.046 483.771C564.398 484.375 564.696 485.044 564.948 485.741C565.313 486.75 565.596 487.861 565.804 489Z" fill="currentColor"/>
<rect x="528" y="462" width="224" height="64" rx="6" stroke="currentColor" stroke-width="4" stroke-linecap="round"/>
<path d="M582.992 505.99L591.08 484.438H593.408L585.32 505.99H582.992ZM606.023 502.678L604.751 498.214H599.423L598.151 502.678H595.415L600.311 485.926H603.983L608.879 502.678H606.023ZM602.183 488.638H601.991L599.927 495.982H604.247L602.183 488.638ZM613.213 485.926V496.222C613.213 496.91 613.229 497.534 613.261 498.094C613.309 498.654 613.429 499.134 613.621 499.534C613.813 499.918 614.101 500.214 614.485 500.422C614.869 500.63 615.397 500.734 616.069 500.734C616.741 500.734 617.269 500.63 617.653 500.422C618.037 500.214 618.325 499.918 618.517 499.534C618.709 499.134 618.821 498.654 618.853 498.094C618.901 497.534 618.925 496.91 618.925 496.222V485.926H621.613V495.742C621.613 496.942 621.541 497.998 621.397 498.91C621.269 499.806 621.005 500.558 620.605 501.166C620.205 501.758 619.637 502.206 618.901 502.51C618.181 502.814 617.237 502.966 616.069 502.966C614.901 502.966 613.949 502.814 613.213 502.51C612.493 502.206 611.933 501.758 611.533 501.166C611.133 500.558 610.861 499.806 610.717 498.91C610.589 497.998 610.525 496.942 610.525 495.742V485.926H613.213ZM631.348 488.182V502.678H628.66V488.182H623.404V485.926H636.604V488.182H631.348ZM646.722 495.31H641.154V502.678H638.466V485.926H641.154V493.054H646.722V485.926H649.41V502.678H646.722V495.31Z" fill="currentColor"/>
<path fill-rule="evenodd" clip-rule="evenodd" d="M555.92 683C555.803 684.019 555.745 685.04 555.745 686C555.745 686.96 555.803 687.981 555.92 689H564.08C564.197 687.981 564.255 686.96 564.255 686C564.255 685.04 564.197 684.019 564.08 683H555.92ZM553.908 683C553.798 684.028 553.745 685.046 553.745 686C553.745 686.954 553.798 687.972 553.908 689H549.417C549.141 688.026 549 687.016 549 686C549 684.984 549.141 683.974 549.417 683H553.908ZM556.232 681H563.768C563.587 680.089 563.354 679.214 563.067 678.422C562.665 677.308 562.179 676.423 561.637 675.831C561.109 675.255 560.571 675 560 675C559.429 675 558.891 675.255 558.363 675.831C557.821 676.423 557.335 677.308 556.933 678.422C556.646 679.214 556.413 680.089 556.232 681ZM555.954 675.771C555.602 676.375 555.304 677.044 555.052 677.741C554.687 678.75 554.404 679.861 554.196 681H550.202C550.725 679.975 551.406 679.038 552.222 678.222C553.243 677.2 554.456 676.39 555.79 675.837C555.845 675.815 555.899 675.793 555.954 675.771ZM547.809 681.485C547.866 681.331 547.926 681.177 547.99 681.025C548.643 679.448 549.6 678.015 550.808 676.808C552.015 675.6 553.448 674.643 555.025 673.99C556.602 673.336 558.293 673 560 673C561.707 673 563.398 673.336 564.975 673.99C566.552 674.643 567.985 675.6 569.192 676.808C570.4 678.015 571.357 679.448 572.01 681.025C572.074 681.177 572.134 681.331 572.191 681.485C572.259 681.598 572.305 681.726 572.324 681.862C572.771 683.194 573 684.591 573 686C573 687.409 572.771 688.806 572.324 690.138C572.305 690.274 572.259 690.402 572.191 690.515C572.134 690.669 572.074 690.823 572.01 690.975C571.357 692.552 570.4 693.985 569.192 695.192C567.985 696.4 566.552 697.357 564.975 698.01C563.398 698.664 561.707 699 560 699C558.293 699 556.602 698.664 555.025 698.01C553.448 697.357 552.015 696.4 550.808 695.192C549.6 693.985 548.643 692.552 547.99 690.975C547.926 690.823 547.866 690.669 547.809 690.515C547.741 690.402 547.695 690.274 547.676 690.138C547.229 688.806 547 687.409 547 686C547 684.591 547.229 683.194 547.676 681.862C547.695 681.726 547.741 681.598 547.809 681.485ZM550.202 691C550.725 692.025 551.406 692.962 552.222 693.778C553.243 694.8 554.456 695.61 555.79 696.163C555.845 696.185 555.899 696.207 555.954 696.229C555.602 695.625 555.304 694.956 555.052 694.259C554.687 693.25 554.404 692.139 554.196 691H550.202ZM556.232 691C556.413 691.911 556.646 692.786 556.933 693.578C557.335 694.692 557.821 695.577 558.363 696.169C558.891 696.745 559.429 697 560 697C560.571 697 561.109 696.745 561.637 696.169C562.179 695.577 562.665 694.692 563.067 693.578C563.354 692.786 563.587 691.911 563.768 691H556.232ZM565.804 691C565.596 692.139 565.313 693.25 564.948 694.259C564.696 694.956 564.398 695.625 564.046 696.229C564.101 696.207 564.155 696.185 564.21 696.163C565.544 695.61 566.757 694.8 567.778 693.778C568.594 692.962 569.275 692.025 569.798 691H565.804ZM570.583 689C570.859 688.026 571 687.016 571 686C571 684.984 570.859 683.974 570.583 683H566.092C566.202 684.028 566.255 685.046 566.255 686C566.255 686.954 566.202 687.972 566.092 689H570.583ZM565.804 681H569.798C569.275 679.975 568.594 679.038 567.778 678.222C566.757 677.2 565.544 676.39 564.21 675.837C564.155 675.815 564.101 675.793 564.046 675.771C564.398 676.375 564.696 677.044 564.948 677.741C565.313 678.75 565.596 679.861 565.804 681Z" fill="currentColor"/>
<rect x="528" y="654" width="224" height="64" rx="6" stroke="currentColor" stroke-width="4" stroke-linecap="round"/>
<path d="M582.992 697.99L591.08 676.438H593.408L585.32 697.99H582.992ZM605.255 692.374H605.087C604.943 692.71 604.767 693.038 604.559 693.358C604.367 693.662 604.119 693.934 603.815 694.174C603.527 694.414 603.175 694.606 602.759 694.75C602.343 694.894 601.863 694.966 601.319 694.966C599.575 694.966 598.263 694.222 597.383 692.734C596.503 691.246 596.063 689.142 596.063 686.422C596.063 683.574 596.567 681.398 597.575 679.894C598.583 678.39 600.127 677.638 602.207 677.638C603.023 677.638 603.735 677.75 604.343 677.974C604.967 678.198 605.495 678.502 605.927 678.886C606.359 679.254 606.719 679.694 607.007 680.206C607.295 680.702 607.527 681.23 607.703 681.79L605.279 682.606C605.151 682.238 605.007 681.894 604.847 681.574C604.687 681.238 604.487 680.942 604.247 680.686C604.023 680.43 603.743 680.23 603.407 680.086C603.087 679.942 602.695 679.87 602.231 679.87C601.063 679.87 600.215 680.326 599.687 681.238C599.175 682.134 598.919 683.35 598.919 684.886V687.55C598.919 688.318 598.975 689.022 599.087 689.662C599.199 690.302 599.383 690.854 599.639 691.318C599.911 691.766 600.255 692.118 600.671 692.374C601.103 692.63 601.623 692.758 602.231 692.758C603.207 692.758 603.951 692.47 604.463 691.894C604.991 691.302 605.255 690.55 605.255 689.638V688.126H602.015V686.11H607.703V694.678H605.255V692.374ZM610.933 694.678V677.926H621.421V680.182H613.621V685.054H621.133V687.31H613.621V692.422H621.421V694.678H610.933ZM627.1 681.79H626.884V694.678H624.532V677.926H627.988L632.908 690.814H633.124V677.926H635.476V694.678H632.02L627.1 681.79ZM638.802 694.678V677.926H649.29V680.182H641.49V685.054H649.002V687.31H641.49V692.422H649.29V694.678H638.802ZM655.353 694.678H652.689V677.926H658.953C660.553 677.926 661.769 678.374 662.601 679.27C663.449 680.166 663.873 681.398 663.873 682.966C663.873 684.246 663.561 685.302 662.937 686.134C662.313 686.966 661.417 687.478 660.249 687.67L664.113 694.678H661.137L657.585 687.91H655.353V694.678ZM658.569 685.75C660.233 685.75 661.065 684.99 661.065 683.47V682.438C661.065 680.918 660.233 680.158 658.569 680.158H655.353V685.75H658.569ZM675.696 694.678L674.424 690.214H669.096L667.824 694.678H665.088L669.984 677.926H673.656L678.552 694.678H675.696ZM671.856 680.638H671.664L669.6 687.982H673.92L671.856 680.638ZM687.086 680.182V694.678H684.398V680.182H679.142V677.926H692.342V680.182H687.086ZM694.541 694.678V677.926H705.029V680.182H697.229V685.054H704.741V687.31H697.229V692.422H705.029V694.678H694.541Z" fill="currentColor"/>
<rect x="368" y="74.5371" width="944" height="880" rx="6" stroke="currentColor" stroke-width="4" stroke-linecap="round" stroke-dasharray="16 10"/>
<path d="M377.76 45.4629V34.9429L368.48 17.5429H373.48L377.04 24.5029L379.92 30.4629H380.16L383.08 24.5029L386.64 17.5429H391.52L382.24 34.9429V45.4629H377.76ZM403.104 45.9429C401.344 45.9429 399.811 45.6229 398.504 44.9829C397.224 44.3162 396.158 43.3696 395.304 42.1429C394.478 40.9162 393.864 39.4096 393.464 37.6229C393.064 35.8362 392.864 33.7962 392.864 31.5029C392.864 29.2362 393.064 27.2096 393.464 25.4229C393.864 23.6096 394.478 22.0896 395.304 20.8629C396.158 19.6362 397.224 18.7029 398.504 18.0629C399.811 17.3962 401.344 17.0629 403.104 17.0629C404.864 17.0629 406.384 17.3962 407.664 18.0629C408.971 18.7029 410.038 19.6362 410.864 20.8629C411.718 22.0896 412.344 23.6096 412.744 25.4229C413.144 27.2096 413.344 29.2362 413.344 31.5029C413.344 33.7962 413.144 35.8362 412.744 37.6229C412.344 39.4096 411.718 40.9162 410.864 42.1429C410.038 43.3696 408.971 44.3162 407.664 44.9829C406.384 45.6229 404.864 45.9429 403.104 45.9429ZM403.104 42.2229C405.104 42.2229 406.518 41.4762 407.344 39.9829C408.171 38.4629 408.584 36.4096 408.584 33.8229V29.1429C408.584 26.5829 408.171 24.5562 407.344 23.0629C406.518 21.5429 405.104 20.7829 403.104 20.7829C401.104 20.7829 399.691 21.5429 398.864 23.0629C398.038 24.5562 397.624 26.5829 397.624 29.1429V33.8629C397.624 36.4229 398.038 38.4629 398.864 39.9829C399.691 41.4762 401.104 42.2229 403.104 42.2229ZM421.449 17.5429V34.7029C421.449 35.8496 421.475 36.8896 421.529 37.8229C421.609 38.7562 421.809 39.5562 422.129 40.2229C422.449 40.8629 422.929 41.3562 423.569 41.7029C424.209 42.0496 425.089 42.2229 426.209 42.2229C427.329 42.2229 428.209 42.0496 428.849 41.7029C429.489 41.3562 429.969 40.8629 430.289 40.2229C430.609 39.5562 430.795 38.7562 430.849 37.8229C430.929 36.8896 430.969 35.8496 430.969 34.7029V17.5429H435.449V33.9029C435.449 35.9029 435.329 37.6629 435.089 39.1829C434.875 40.6762 434.435 41.9296 433.769 42.9429C433.102 43.9296 432.155 44.6762 430.929 45.1829C429.729 45.6896 428.155 45.9429 426.209 45.9429C424.262 45.9429 422.675 45.6896 421.449 45.1829C420.249 44.6762 419.315 43.9296 418.649 42.9429C417.982 41.9296 417.529 40.6762 417.289 39.1829C417.075 37.6629 416.969 35.9029 416.969 33.9029V17.5429H421.449ZM445.113 45.4629H440.673V17.5429H451.113C453.78 17.5429 455.806 18.2896 457.193 19.7829C458.606 21.2762 459.313 23.3296 459.313 25.9429C459.313 28.0762 458.793 29.8362 457.753 31.2229C456.713 32.6096 455.22 33.4629 453.273 33.7829L459.713 45.4629H454.753L448.833 34.1829H445.113V45.4629ZM450.473 30.5829C453.246 30.5829 454.633 29.3162 454.633 26.7829V25.0629C454.633 22.5296 453.246 21.2629 450.473 21.2629H445.113V30.5829H450.473ZM486.722 45.4629V42.0629H493.282V20.9429H486.722V17.5429H504.322V20.9429H497.762V42.0629H504.322V45.4629H486.722ZM513.786 23.9829H513.426V45.4629H509.506V17.5429H515.266L523.466 39.0229H523.826V17.5429H527.746V45.4629H521.986L513.786 23.9829ZM533.171 45.4629V17.5429H551.131V21.3029H537.651V29.4229H549.891V33.1829H537.651V45.4629H533.171ZM560.635 45.4629H556.195V17.5429H566.635C569.302 17.5429 571.328 18.2896 572.715 19.7829C574.128 21.2762 574.835 23.3296 574.835 25.9429C574.835 28.0762 574.315 29.8362 573.275 31.2229C572.235 32.6096 570.742 33.4629 568.795 33.7829L575.235 45.4629H570.275L564.355 34.1829H560.635V45.4629ZM565.995 30.5829C568.768 30.5829 570.155 29.3162 570.155 26.7829V25.0629C570.155 22.5296 568.768 21.2629 565.995 21.2629H560.635V30.5829H565.995ZM594.419 45.4629L592.299 38.0229H583.419L581.299 45.4629H576.739L584.899 17.5429H591.019L599.179 45.4629H594.419ZM588.019 22.0629H587.699L584.259 34.3029H591.459L588.019 22.0629ZM610.804 45.9429C608.377 45.9429 606.337 45.5162 604.684 44.6629C603.03 43.8096 601.67 42.6762 600.604 41.2629L603.484 38.5029C604.55 39.7829 605.684 40.7296 606.884 41.3429C608.084 41.9296 609.444 42.2229 610.964 42.2229C612.724 42.2229 614.07 41.8229 615.004 41.0229C615.964 40.2229 616.444 39.0762 616.444 37.5829C616.444 36.3829 616.097 35.4629 615.404 34.8229C614.71 34.1562 613.524 33.6762 611.844 33.3829L608.804 32.9029C607.47 32.6896 606.35 32.3429 605.444 31.8629C604.537 31.3562 603.804 30.7696 603.244 30.1029C602.684 29.4096 602.27 28.6496 602.004 27.8229C601.764 26.9696 601.644 26.0762 601.644 25.1429C601.644 22.5029 602.497 20.5029 604.204 19.1429C605.91 17.7562 608.257 17.0629 611.244 17.0629C613.457 17.0629 615.337 17.4229 616.884 18.1429C618.457 18.8362 619.724 19.8229 620.684 21.1029L617.884 23.9029C617.11 22.9696 616.19 22.2229 615.124 21.6629C614.084 21.0762 612.79 20.7829 611.244 20.7829C609.59 20.7829 608.324 21.1429 607.444 21.8629C606.59 22.5562 606.164 23.5829 606.164 24.9429C606.164 26.0896 606.497 26.9962 607.164 27.6629C607.857 28.3029 609.07 28.7696 610.804 29.0629L613.764 29.5829C616.27 30.0362 618.097 30.9562 619.244 32.3429C620.39 33.7029 620.964 35.3696 620.964 37.3429C620.964 38.6229 620.737 39.7962 620.284 40.8629C619.857 41.9296 619.204 42.8362 618.324 43.5829C617.47 44.3296 616.404 44.9162 615.124 45.3429C613.87 45.7429 612.43 45.9429 610.804 45.9429ZM636.388 21.3029V45.4629H631.908V21.3029H623.148V17.5429H645.148V21.3029H636.388ZM653.053 45.4629H648.613V17.5429H659.053C661.719 17.5429 663.746 18.2896 665.133 19.7829C666.546 21.2762 667.253 23.3296 667.253 25.9429C667.253 28.0762 666.733 29.8362 665.693 31.2229C664.653 32.6096 663.159 33.4629 661.213 33.7829L667.653 45.4629H662.693L656.773 34.1829H653.053V45.4629ZM658.413 30.5829C661.186 30.5829 662.573 29.3162 662.573 26.7829V25.0629C662.573 22.5296 661.186 21.2629 658.413 21.2629H653.053V30.5829H658.413ZM675.597 17.5429V34.7029C675.597 35.8496 675.624 36.8896 675.677 37.8229C675.757 38.7562 675.957 39.5562 676.277 40.2229C676.597 40.8629 677.077 41.3562 677.717 41.7029C678.357 42.0496 679.237 42.2229 680.357 42.2229C681.477 42.2229 682.357 42.0496 682.997 41.7029C683.637 41.3562 684.117 40.8629 684.437 40.2229C684.757 39.5562 684.944 38.7562 684.997 37.8229C685.077 36.8896 685.117 35.8496 685.117 34.7029V17.5429H689.597V33.9029C689.597 35.9029 689.477 37.6629 689.237 39.1829C689.024 40.6762 688.584 41.9296 687.917 42.9429C687.25 43.9296 686.304 44.6762 685.077 45.1829C683.877 45.6896 682.304 45.9429 680.357 45.9429C678.41 45.9429 676.824 45.6896 675.597 45.1829C674.397 44.6762 673.464 43.9296 672.797 42.9429C672.13 41.9296 671.677 40.6762 671.437 39.1829C671.224 37.6629 671.117 35.9029 671.117 33.9029V17.5429H675.597ZM704.261 45.9429C700.715 45.9429 698.075 44.6896 696.341 42.1829C694.635 39.6762 693.781 36.1162 693.781 31.5029C693.781 26.8896 694.635 23.3296 696.341 20.8229C698.075 18.3162 700.715 17.0629 704.261 17.0629C705.621 17.0629 706.795 17.2496 707.781 17.6229C708.795 17.9696 709.661 18.4629 710.381 19.1029C711.101 19.7162 711.701 20.4496 712.181 21.3029C712.688 22.1296 713.101 23.0229 713.421 23.9829L709.381 25.3429C709.168 24.7029 708.928 24.1029 708.661 23.5429C708.395 22.9829 708.061 22.5029 707.661 22.1029C707.261 21.7029 706.781 21.3829 706.221 21.1429C705.688 20.9029 705.021 20.7829 704.221 20.7829C702.248 20.7829 700.808 21.5429 699.901 23.0629C698.995 24.5562 698.541 26.5829 698.541 29.1429V33.8629C698.541 36.4229 698.995 38.4629 699.901 39.9829C700.808 41.4762 702.248 42.2229 704.221 42.2229C705.021 42.2229 705.688 42.1029 706.221 41.8629C706.781 41.6229 707.261 41.3029 707.661 40.9029C708.061 40.5029 708.395 40.0229 708.661 39.4629C708.928 38.9029 709.168 38.3029 709.381 37.6629L713.421 39.0229C713.101 39.9829 712.688 40.8896 712.181 41.7429C711.701 42.5696 711.101 43.3029 710.381 43.9429C709.661 44.5562 708.795 45.0496 707.781 45.4229C706.795 45.7696 705.621 45.9429 704.261 45.9429ZM728.806 21.3029V45.4629H724.326V21.3029H715.566V17.5429H737.566V21.3029H728.806ZM744.91 17.5429V34.7029C744.91 35.8496 744.937 36.8896 744.99 37.8229C745.07 38.7562 745.27 39.5562 745.59 40.2229C745.91 40.8629 746.39 41.3562 747.03 41.7029C747.67 42.0496 748.55 42.2229 749.67 42.2229C750.79 42.2229 751.67 42.0496 752.31 41.7029C752.95 41.3562 753.43 40.8629 753.75 40.2229C754.07 39.5562 754.257 38.7562 754.31 37.8229C754.39 36.8896 754.43 35.8496 754.43 34.7029V17.5429H758.91V33.9029C758.91 35.9029 758.79 37.6629 758.55 39.1829C758.337 40.6762 757.897 41.9296 757.23 42.9429C756.563 43.9296 755.617 44.6762 754.39 45.1829C753.19 45.6896 751.617 45.9429 749.67 45.9429C747.723 45.9429 746.137 45.6896 744.91 45.1829C743.71 44.6762 742.777 43.9296 742.11 42.9429C741.443 41.9296 740.99 40.6762 740.75 39.1829C740.537 37.6629 740.43 35.9029 740.43 33.9029V17.5429H744.91ZM768.574 45.4629H764.134V17.5429H774.574C777.241 17.5429 779.268 18.2896 780.654 19.7829C782.068 21.2762 782.774 23.3296 782.774 25.9429C782.774 28.0762 782.254 29.8362 781.214 31.2229C780.174 32.6096 778.681 33.4629 776.734 33.7829L783.174 45.4629H778.214L772.294 34.1829H768.574V45.4629ZM773.934 30.5829C776.708 30.5829 778.094 29.3162 778.094 26.7829V25.0629C778.094 22.5296 776.708 21.2629 773.934 21.2629H768.574V30.5829H773.934ZM787.319 45.4629V17.5429H804.799V21.3029H791.799V29.4229H804.319V33.1829H791.799V41.7029H804.799V45.4629H787.319Z" fill="currentColor"/>
<rect x="929.5" y="239.5" width="127" height="174" rx="6.5" stroke="currentColor" stroke-width="3"/>
<path d="M1017 282C1017 286.418 1006.25 290 993 290C979.745 290 969 286.418 969 282M1017 282C1017 277.582 1006.25 274 993 274C979.745 274 969 277.582 969 282M1017 282V319.333C1017 323.76 1006.33 327.333 993 327.333C979.667 327.333 969 323.76 969 319.333V282M1017 300.667C1017 305.093 1006.33 308.667 993 308.667C979.667 308.667 969 305.093 969 300.667" stroke="currentColor" stroke-width="3" stroke-linecap="round" stroke-linejoin="round"/>
<path d="M980.805 355.248H985.797C987.941 355.248 989.525 355.96 990.549 357.384C991.589 358.808 992.109 360.888 992.109 363.624C992.109 366.36 991.589 368.44 990.549 369.864C989.525 371.288 987.941 372 985.797 372H980.805V355.248ZM985.629 369.792C986.861 369.792 987.773 369.384 988.365 368.568C988.973 367.736 989.277 366.552 989.277 365.016V362.232C989.277 360.696 988.973 359.52 988.365 358.704C987.773 357.872 986.861 357.456 985.629 357.456H983.469V369.792H985.629ZM994.764 355.248H1000.55C1002.07 355.248 1003.24 355.64 1004.08 356.424C1004.92 357.208 1005.35 358.28 1005.35 359.64C1005.35 360.616 1005.11 361.392 1004.63 361.968C1004.15 362.544 1003.5 362.952 1002.68 363.192V363.312C1003.66 363.536 1004.44 363.968 1005.04 364.608C1005.63 365.232 1005.92 366.12 1005.92 367.272C1005.92 367.96 1005.81 368.592 1005.59 369.168C1005.36 369.744 1005.04 370.248 1004.63 370.68C1004.21 371.096 1003.71 371.424 1003.12 371.664C1002.54 371.888 1001.9 372 1001.2 372H994.764V355.248ZM1000.38 369.936C1001.28 369.936 1001.96 369.752 1002.44 369.384C1002.92 369.016 1003.16 368.424 1003.16 367.608V366.744C1003.16 365.928 1002.92 365.336 1002.44 364.968C1001.96 364.6 1001.28 364.416 1000.38 364.416H997.404V369.936H1000.38ZM999.996 362.448C1000.84 362.448 1001.48 362.288 1001.92 361.968C1002.36 361.632 1002.59 361.08 1002.59 360.312V359.448C1002.59 358.68 1002.36 358.136 1001.92 357.816C1001.48 357.48 1000.84 357.312 999.996 357.312H997.404V362.448H999.996Z" fill="currentColor"/>
<rect x="1121.5" y="239.5" width="127" height="174" rx="6.5" stroke="currentColor" stroke-width="3"/>
<path d="M1208.13 276H1161.87C1159.78 276 1158.09 277.693 1158.09 279.782V291.345C1158.09 293.434 1159.78 295.127 1161.87 295.127H1208.13C1210.22 295.127 1211.91 293.434 1211.91 291.345V279.782C1211.91 277.693 1210.22 276 1208.13 276ZM1208.13 305.873H1161.87C1159.78 305.873 1158.09 307.566 1158.09 309.655V321.218C1158.09 323.307 1159.78 325 1161.87 325H1208.13C1210.22 325 1211.91 323.307 1211.91 321.218V309.655C1211.91 307.566 1210.22 305.873 1208.13 305.873ZM1161.87 275H1208.13C1210.77 275 1212.91 277.141 1212.91 279.782V291.345C1212.91 293.986 1210.77 296.127 1208.13 296.127H1161.87C1159.23 296.127 1157.09 293.986 1157.09 291.345V279.782C1157.09 277.141 1159.23 275 1161.87 275ZM1161.87 304.873H1208.13C1210.77 304.873 1212.91 307.014 1212.91 309.655V321.218C1212.91 323.859 1210.77 326 1208.13 326H1161.87C1159.23 326 1157.09 323.859 1157.09 321.218V309.655C1157.09 307.014 1159.23 304.873 1161.87 304.873ZM1204 286C1204 286.552 1203.55 287 1203 287C1202.45 287 1202 286.552 1202 286C1202 285.448 1202.45 285 1203 285C1203.55 285 1204 285.448 1204 286ZM1204 316C1204 316.552 1203.55 317 1203 317C1202.45 317 1202 316.552 1202 316C1202 315.448 1202.45 315 1203 315C1203.55 315 1204 315.448 1204 316ZM1164.82 285.668C1164.82 285.392 1165.05 285.168 1165.32 285.168H1191.56C1191.84 285.168 1192.06 285.392 1192.06 285.668C1192.06 285.944 1191.84 286.168 1191.56 286.168H1165.32C1165.05 286.168 1164.82 285.944 1164.82 285.668ZM1164.82 315.573C1164.82 315.297 1165.05 315.073 1165.32 315.073H1191.56C1191.84 315.073 1192.06 315.297 1192.06 315.573C1192.06 315.849 1191.84 316.073 1191.56 316.073H1165.32C1165.05 316.073 1164.82 315.849 1164.82 315.573Z" stroke="currentColor" stroke-width="2" stroke-linecap="round"/>
<path d="M1174.96 372L1173.69 367.536H1168.36L1167.09 372H1164.35L1169.25 355.248H1172.92L1177.81 372H1174.96ZM1171.12 357.96H1170.93L1168.86 365.304H1173.18L1171.12 357.96ZM1179.82 372V355.248H1186.08C1187.68 355.248 1188.9 355.696 1189.73 356.592C1190.58 357.488 1191 358.72 1191 360.288C1191 361.856 1190.58 363.088 1189.73 363.984C1188.9 364.88 1187.68 365.328 1186.08 365.328H1182.51V372H1179.82ZM1182.51 363.096H1185.68C1187.34 363.096 1188.17 362.328 1188.17 360.792V359.76C1188.17 358.24 1187.34 357.48 1185.68 357.48H1182.51V363.096ZM1193.66 372V369.96H1197.6V357.288H1193.66V355.248H1204.22V357.288H1200.28V369.96H1204.22V372H1193.66Z" fill="currentColor"/>
<path d="M760 588C758.895 588 758 588.895 758 590C758 591.105 758.895 592 760 592V588ZM994.414 420.086C993.633 419.305 992.367 419.305 991.586 420.086L978.858 432.814C978.077 433.595 978.077 434.861 978.858 435.642C979.639 436.423 980.905 436.423 981.686 435.642L993 424.328L1004.31 435.642C1005.09 436.423 1006.36 436.423 1007.14 435.642C1007.92 434.861 1007.92 433.595 1007.14 432.814L994.414 420.086ZM760 592H969V588H760V592ZM995 566V421.5H991V566H995ZM969 592C983.359 592 995 580.359 995 566H991C991 578.15 981.15 588 969 588V592Z" fill="currentColor"/>
<path d="M760 588C758.895 588 758 588.895 758 590C758 591.105 758.895 592 760 592V588ZM1186.41 420.086C1185.63 419.305 1184.37 419.305 1183.59 420.086L1170.86 432.814C1170.08 433.595 1170.08 434.861 1170.86 435.642C1171.64 436.423 1172.91 436.423 1173.69 435.642L1185 424.328L1196.31 435.642C1197.09 436.423 1198.36 436.423 1199.14 435.642C1199.92 434.861 1199.92 433.595 1199.14 432.814L1186.41 420.086ZM760 592H1161V588H760V592ZM1187 566V421.5H1183V566H1187ZM1161 592C1175.36 592 1187 580.359 1187 566H1183C1183 578.15 1173.15 588 1161 588V592Z" fill="currentColor"/>
<path d="M1742.66 527.583H1729.71L1752.9 586.333H1765.56L1742.66 527.583ZM1705.3 527.583L1682.4 586.333H1695.36L1700.48 573.98H1724.58L1729.4 586.032H1742.36L1718.86 527.583H1705.3ZM1704.1 563.135L1711.93 542.345L1720.06 563.135H1704.1Z" fill="currentColor"/>
<g clip-path="url(#clip0_2017_268)">
<path d="M1618.64 548.367C1619.38 546.115 1619.64 543.73 1619.39 541.37C1619.15 539.01 1618.4 536.73 1617.2 534.683C1613.55 528.333 1606.22 525.067 1599.06 526.602C1597.08 524.396 1594.55 522.752 1591.73 521.832C1588.91 520.913 1585.9 520.752 1583 521.365C1580.09 521.978 1577.41 523.344 1575.2 525.325C1572.99 527.306 1571.35 529.833 1570.42 532.652C1568.1 533.129 1565.9 534.097 1563.98 535.49C1562.06 536.884 1560.46 538.671 1559.28 540.734C1555.6 547.073 1556.43 555.07 1561.35 560.509C1560.6 562.76 1560.34 565.145 1560.59 567.505C1560.83 569.865 1561.58 572.145 1562.78 574.193C1566.43 580.545 1573.77 583.811 1580.93 582.274C1582.51 584.048 1584.44 585.465 1586.61 586.431C1588.78 587.398 1591.12 587.891 1593.5 587.877C1600.83 587.884 1607.34 583.146 1609.58 576.157C1611.9 575.68 1614.1 574.712 1616.02 573.318C1617.94 571.925 1619.54 570.138 1620.72 568.076C1624.36 561.748 1623.52 553.794 1618.64 548.367ZM1593.5 583.5C1590.57 583.505 1587.73 582.478 1585.48 580.6L1585.88 580.376L1599.19 572.69C1599.52 572.496 1599.8 572.218 1599.99 571.886C1600.18 571.553 1600.28 571.176 1600.28 570.792V552.019L1605.91 555.275C1605.97 555.304 1606.01 555.357 1606.02 555.42V570.976C1606.01 577.887 1600.41 583.486 1593.5 583.5ZM1566.58 572.005C1565.11 569.468 1564.58 566.494 1565.09 563.607L1565.48 563.844L1578.81 571.53C1579.14 571.723 1579.51 571.825 1579.9 571.825C1580.28 571.825 1580.65 571.723 1580.98 571.53L1597.27 562.143V568.643C1597.26 568.676 1597.26 568.709 1597.24 568.739C1597.22 568.769 1597.2 568.794 1597.17 568.814L1583.69 576.592C1577.69 580.045 1570.04 577.992 1566.58 572.005ZM1563.07 543.001C1564.55 540.448 1566.88 538.501 1569.66 537.504V553.324C1569.66 553.706 1569.75 554.082 1569.94 554.414C1570.13 554.746 1570.41 555.02 1570.74 555.209L1586.94 564.556L1581.31 567.812C1581.28 567.828 1581.25 567.837 1581.22 567.837C1581.18 567.837 1581.15 567.828 1581.12 567.812L1567.66 560.048C1561.68 556.581 1559.62 548.93 1563.07 542.936V543.001ZM1609.32 553.746L1593.06 544.306L1598.68 541.063C1598.71 541.047 1598.74 541.039 1598.78 541.039C1598.81 541.039 1598.84 541.047 1598.87 541.063L1612.33 548.842C1614.39 550.029 1616.07 551.778 1617.17 553.883C1618.27 555.988 1618.75 558.363 1618.56 560.731C1618.36 563.099 1617.49 565.362 1616.06 567.255C1614.62 569.149 1612.68 570.595 1610.45 571.424V555.604C1610.44 555.223 1610.33 554.851 1610.13 554.525C1609.93 554.199 1609.65 553.931 1609.32 553.746ZM1614.92 545.322L1614.52 545.084L1601.22 537.333C1600.89 537.138 1600.51 537.035 1600.13 537.035C1599.74 537.035 1599.36 537.138 1599.03 537.333L1582.76 546.719V540.22C1582.76 540.187 1582.77 540.154 1582.78 540.124C1582.79 540.093 1582.82 540.068 1582.84 540.049L1596.3 532.284C1598.37 531.095 1600.72 530.519 1603.1 530.622C1605.48 530.725 1607.78 531.502 1609.73 532.865C1611.69 534.227 1613.21 536.117 1614.13 538.313C1615.05 540.51 1615.32 542.923 1614.92 545.269L1614.92 545.322ZM1579.69 556.844L1574.06 553.601C1574.04 553.584 1574.01 553.561 1573.99 553.533C1573.97 553.506 1573.96 553.475 1573.96 553.442V537.926C1573.96 535.546 1574.64 533.215 1575.92 531.208C1577.2 529.2 1579.02 527.598 1581.18 526.588C1583.33 525.579 1585.73 525.204 1588.09 525.508C1590.45 525.811 1592.68 526.78 1594.51 528.302L1594.11 528.526L1580.8 536.212C1580.47 536.407 1580.19 536.684 1580 537.017C1579.81 537.349 1579.71 537.726 1579.71 538.111L1579.69 556.844ZM1582.75 550.252L1590 546.073L1597.27 550.252V558.61L1590.03 562.789L1582.76 558.61L1582.75 550.252Z" fill="currentColor"/>
</g>
<path d="M1682.9 465.564C1673.71 466.126 1665.04 470.03 1658.53 476.541C1652.02 483.052 1648.12 491.719 1647.56 500.91H1647.42C1646.28 481.912 1631.08 466.712 1612.08 465.564V465.422C1631.08 464.289 1646.28 449.085 1647.43 430.091H1647.57C1648.72 449.085 1663.92 464.289 1682.92 465.437V465.564H1682.9Z" fill="currentColor"/>
<rect x="1520" y="384" width="282.308" height="262.143" rx="6" stroke="currentColor" stroke-width="4" stroke-linecap="round" stroke-dasharray="16 10"/>
<path d="M1537.8 336.103L1537.92 327.703H1537.6L1532 342.063L1526.4 327.703H1526.08L1526.2 336.103V349.463H1522.24V321.543H1527.72L1532 332.623H1532.28L1536.6 321.543H1541.76V349.463H1537.8V336.103ZM1555.1 349.943C1553.34 349.943 1551.81 349.623 1550.5 348.983C1549.22 348.316 1548.16 347.37 1547.3 346.143C1546.48 344.916 1545.86 343.41 1545.46 341.623C1545.06 339.836 1544.86 337.796 1544.86 335.503C1544.86 333.236 1545.06 331.21 1545.46 329.423C1545.86 327.61 1546.48 326.09 1547.3 324.863C1548.16 323.636 1549.22 322.703 1550.5 322.063C1551.81 321.396 1553.34 321.063 1555.1 321.063C1556.86 321.063 1558.38 321.396 1559.66 322.063C1560.97 322.703 1562.04 323.636 1562.86 324.863C1563.72 326.09 1564.34 327.61 1564.74 329.423C1565.14 331.21 1565.34 333.236 1565.34 335.503C1565.34 337.796 1565.14 339.836 1564.74 341.623C1564.34 343.41 1563.72 344.916 1562.86 346.143C1562.04 347.37 1560.97 348.316 1559.66 348.983C1558.38 349.623 1556.86 349.943 1555.1 349.943ZM1555.1 346.223C1557.1 346.223 1558.52 345.476 1559.34 343.983C1560.17 342.463 1560.58 340.41 1560.58 337.823V333.143C1560.58 330.583 1560.17 328.556 1559.34 327.063C1558.52 325.543 1557.1 324.783 1555.1 324.783C1553.1 324.783 1551.69 325.543 1550.86 327.063C1550.04 328.556 1549.62 330.583 1549.62 333.143V337.863C1549.62 340.423 1550.04 342.463 1550.86 343.983C1551.69 345.476 1553.1 346.223 1555.1 346.223ZM1569.49 321.543H1577.81C1581.38 321.543 1584.02 322.73 1585.73 325.103C1587.46 327.476 1588.33 330.943 1588.33 335.503C1588.33 340.063 1587.46 343.53 1585.73 345.903C1584.02 348.276 1581.38 349.463 1577.81 349.463H1569.49V321.543ZM1577.53 345.783C1579.58 345.783 1581.1 345.103 1582.09 343.743C1583.1 342.356 1583.61 340.383 1583.61 337.823V333.183C1583.61 330.623 1583.1 328.663 1582.09 327.303C1581.1 325.916 1579.58 325.223 1577.53 325.223H1573.93V345.783H1577.53ZM1592.75 349.463V321.543H1610.23V325.303H1597.23V333.423H1609.75V337.183H1597.23V345.703H1610.23V349.463H1592.75ZM1616.74 349.463V321.543H1621.22V345.703H1633.94V349.463H1616.74ZM1647.28 349.943C1644.86 349.943 1642.82 349.516 1641.16 348.663C1639.51 347.81 1638.15 346.676 1637.08 345.263L1639.96 342.503C1641.03 343.783 1642.16 344.73 1643.36 345.343C1644.56 345.93 1645.92 346.223 1647.44 346.223C1649.2 346.223 1650.55 345.823 1651.48 345.023C1652.44 344.223 1652.92 343.076 1652.92 341.583C1652.92 340.383 1652.58 339.463 1651.88 338.823C1651.19 338.156 1650 337.676 1648.32 337.383L1645.28 336.903C1643.95 336.69 1642.83 336.343 1641.92 335.863C1641.02 335.356 1640.28 334.77 1639.72 334.103C1639.16 333.41 1638.75 332.65 1638.48 331.823C1638.24 330.97 1638.12 330.076 1638.12 329.143C1638.12 326.503 1638.98 324.503 1640.68 323.143C1642.39 321.756 1644.74 321.063 1647.72 321.063C1649.94 321.063 1651.82 321.423 1653.36 322.143C1654.94 322.836 1656.2 323.823 1657.16 325.103L1654.36 327.903C1653.59 326.97 1652.67 326.223 1651.6 325.663C1650.56 325.076 1649.27 324.783 1647.72 324.783C1646.07 324.783 1644.8 325.143 1643.92 325.863C1643.07 326.556 1642.64 327.583 1642.64 328.943C1642.64 330.09 1642.98 330.996 1643.64 331.663C1644.34 332.303 1645.55 332.77 1647.28 333.063L1650.24 333.583C1652.75 334.036 1654.58 334.956 1655.72 336.343C1656.87 337.703 1657.44 339.37 1657.44 341.343C1657.44 342.623 1657.22 343.796 1656.76 344.863C1656.34 345.93 1655.68 346.836 1654.8 347.583C1653.95 348.33 1652.88 348.916 1651.6 349.343C1650.35 349.743 1648.91 349.943 1647.28 349.943Z" fill="currentColor"/>
<path d="M760 684C758.895 684 758 684.895 758 686C758 687.104 758.895 688 760 688V684ZM1512.91 516.486C1513.7 515.704 1513.7 514.438 1512.91 513.657L1500.19 500.929C1499.41 500.148 1498.14 500.148 1497.36 500.929C1496.58 501.71 1496.58 502.977 1497.36 503.758L1508.67 515.071L1497.36 526.385C1496.58 527.166 1496.58 528.432 1497.36 529.213C1498.14 529.994 1499.41 529.994 1500.19 529.213L1512.91 516.486ZM760 688H1384V684H760V688ZM1410 662V539.071H1406V662H1410ZM1432 517.071H1511.5V513.071H1432V517.071ZM1410 539.071C1410 526.921 1419.85 517.071 1432 517.071V513.071C1417.64 513.071 1406 524.712 1406 539.071H1410ZM1384 688C1398.36 688 1410 676.359 1410 662H1406C1406 674.15 1396.15 684 1384 684V688Z" fill="currentColor"/>
<rect x="1.5" y="406.5" width="127" height="174" rx="6.5" stroke="currentColor" stroke-width="3"/>
<path d="M53.2222 494H76.7778M65 482.222V494M41.4444 441H88.5555C91.8079 441 94.4444 443.637 94.4444 446.889V476.333C94.4444 479.586 91.8079 482.222 88.5555 482.222H41.4444C38.1921 482.222 35.5555 479.586 35.5555 476.333V446.889C35.5555 443.637 38.1921 441 41.4444 441Z" stroke="currentColor" stroke-width="3" stroke-linecap="round" stroke-linejoin="round"/>
<path d="M30.6481 539.288C28.5201 539.288 26.9361 538.536 25.8961 537.032C24.8721 535.528 24.3601 533.392 24.3601 530.624C24.3601 527.856 24.8721 525.72 25.8961 524.216C26.9361 522.712 28.5201 521.96 30.6481 521.96C31.4641 521.96 32.1681 522.072 32.7601 522.296C33.3681 522.504 33.8881 522.8 34.3201 523.184C34.7521 523.552 35.1121 523.992 35.4001 524.504C35.7041 525 35.9521 525.536 36.1441 526.112L33.7201 526.928C33.5921 526.544 33.4481 526.184 33.2881 525.848C33.1281 525.512 32.9281 525.224 32.6881 524.984C32.4481 524.744 32.1601 524.552 31.8241 524.408C31.5041 524.264 31.1041 524.192 30.6241 524.192C29.4401 524.192 28.5761 524.648 28.0321 525.56C27.4881 526.456 27.2161 527.672 27.2161 529.208V532.04C27.2161 533.576 27.4881 534.8 28.0321 535.712C28.5761 536.608 29.4401 537.056 30.6241 537.056C31.1041 537.056 31.5041 536.984 31.8241 536.84C32.1601 536.696 32.4481 536.504 32.6881 536.264C32.9281 536.024 33.1281 535.736 33.2881 535.4C33.4481 535.064 33.5921 534.704 33.7201 534.32L36.1441 535.136C35.9521 535.712 35.7041 536.256 35.4001 536.768C35.1121 537.264 34.7521 537.704 34.3201 538.088C33.8881 538.456 33.3681 538.752 32.7601 538.976C32.1681 539.184 31.4641 539.288 30.6481 539.288ZM39.4947 539V522.248H42.1827V536.744H49.8147V539H39.4947ZM52.7574 539V536.96H56.6934V524.288H52.7574V522.248H63.3174V524.288H59.3814V536.96H63.3174V539H52.7574ZM66.836 539V522.248H77.324V524.504H69.524V529.376H77.036V531.632H69.524V536.744H77.324V539H66.836ZM83.0026 526.112H82.7866V539H80.4346V522.248H83.8906L88.8106 535.136H89.0266V522.248H91.3786V539H87.9226L83.0026 526.112ZM101.185 524.504V539H98.4973V524.504H93.2413V522.248H106.441V524.504H101.185Z" fill="currentColor"/>
<path d="M135.086 492.086C134.305 492.867 134.305 494.133 135.086 494.914L147.814 507.642C148.595 508.423 149.861 508.423 150.642 507.642C151.423 506.861 151.423 505.595 150.642 504.814L139.328 493.5L150.642 482.186C151.423 481.405 151.423 480.139 150.642 479.358C149.861 478.577 148.595 478.577 147.814 479.358L135.086 492.086ZM520 400C521.105 400 522 399.105 522 398C522 396.895 521.105 396 520 396V400ZM136.5 495.5H456V491.5H136.5V495.5ZM482 469.5V422H478V469.5H482ZM504 400H520V396H504V400ZM482 422C482 409.85 491.85 400 504 400V396C489.641 396 478 407.641 478 422H482ZM456 495.5C470.359 495.5 482 483.859 482 469.5H478C478 481.65 468.15 491.5 456 491.5V495.5Z" fill="currentColor"/>
<path d="M520 495.5C521.105 495.5 522 494.605 522 493.5C522 492.395 521.105 491.5 520 491.5V495.5ZM135.086 492.086C134.305 492.867 134.305 494.133 135.086 494.914L147.814 507.642C148.595 508.423 149.861 508.423 150.642 507.642C151.423 506.861 151.423 505.595 150.642 504.814L139.328 493.5L150.642 482.186C151.423 481.405 151.423 480.139 150.642 479.358C149.861 478.577 148.595 478.577 147.814 479.358L135.086 492.086ZM520 491.5H136.5V495.5H520V491.5Z" fill="currentColor"/>
<path d="M135.086 492.086C134.305 492.867 134.305 494.133 135.086 494.914L147.814 507.642C148.595 508.423 149.861 508.423 150.642 507.642C151.423 506.861 151.423 505.595 150.642 504.814L139.328 493.5L150.642 482.186C151.423 481.405 151.423 480.139 150.642 479.358C149.861 478.577 148.595 478.577 147.814 479.358L135.086 492.086ZM520.914 591.414C521.695 590.633 521.695 589.367 520.914 588.586L508.186 575.858C507.405 575.077 506.139 575.077 505.358 575.858C504.577 576.639 504.577 577.905 505.358 578.686L516.672 590L505.358 601.314C504.577 602.095 504.577 603.361 505.358 604.142C506.139 604.923 507.405 604.923 508.186 604.142L520.914 591.414ZM136.5 495.5H154V491.5H136.5V495.5ZM176 517.5V566H180V517.5H176ZM202 592H519.5V588H202V592ZM176 566C176 580.359 187.641 592 202 592V588C189.85 588 180 578.15 180 566H176ZM154 495.5C166.15 495.5 176 505.35 176 517.5H180C180 503.141 168.359 491.5 154 491.5V495.5Z" fill="currentColor"/>
<path d="M135.086 492.086C134.305 492.867 134.305 494.133 135.086 494.914L147.814 507.642C148.595 508.423 149.861 508.423 150.642 507.642C151.423 506.861 151.423 505.595 150.642 504.814L139.328 493.5L150.642 482.186C151.423 481.405 151.423 480.139 150.642 479.358C149.861 478.577 148.595 478.577 147.814 479.358L135.086 492.086ZM520.914 687.414C521.695 686.633 521.695 685.367 520.914 684.586L508.186 671.858C507.405 671.077 506.139 671.077 505.358 671.858C504.577 672.639 504.577 673.905 505.358 674.686L516.672 686L505.358 697.314C504.577 698.095 504.577 699.361 505.358 700.142C506.139 700.923 507.405 700.923 508.186 700.142L520.914 687.414ZM136.5 495.5H154V491.5H136.5V495.5ZM176 517.5V662H180V517.5H176ZM202 688H519.5V684H202V688ZM176 662C176 676.359 187.641 688 202 688V684C189.85 684 180 674.15 180 662H176ZM154 495.5C166.15 495.5 176 505.35 176 517.5H180C180 503.141 168.359 491.5 154 491.5V495.5Z" fill="currentColor"/>
<defs>
<clipPath id="clip0_2017_268">
<rect width="65.9692" height="67" fill="white" transform="translate(1557 521)"/>
</clipPath>
</defs>
</svg>
