<svg width="220" height="34" viewBox="0 0 220 34" fill="none" xmlns="http://www.w3.org/2000/svg">
<path d="M14 31.5L0 23.6873V7.81266L14 0L28 7.81266V23.6873L14 31.5ZM14 28.4664L25.3456 22.0251V9.47493L14 2.99209L2.65443 9.47493V22.0251L14 28.4664ZM13.9572 24.6016C12.2732 24.6016 10.7176 24.1999 9.29052 23.3964C7.89195 22.593 6.7788 21.5125 5.95107 20.155C5.12334 18.7698 4.70948 17.2599 4.70948 15.6253C4.70948 13.9908 5.12334 12.4947 5.95107 11.1372C6.7788 9.77968 7.89195 8.69921 9.29052 7.89578C10.7176 7.06464 12.2732 6.64908 13.9572 6.64908C15.6412 6.64908 17.1825 7.06464 18.581 7.89578C19.9796 8.69921 21.0928 9.77968 21.9205 11.1372C22.7768 12.4947 23.2049 13.9908 23.2049 15.6253C23.2049 17.2599 22.791 18.7559 21.9633 20.1135C21.1356 21.471 20.0224 22.5653 18.6239 23.3964C17.2253 24.1999 15.6697 24.6016 13.9572 24.6016ZM13.9572 22.2744C15.213 22.2744 16.3547 21.9697 17.3823 21.3602C18.4098 20.7507 19.2375 19.9472 19.8654 18.9499C20.4934 17.9248 20.8073 16.8166 20.8073 15.6253C20.8073 14.4063 20.4934 13.2982 19.8654 12.3008C19.2375 11.3034 18.4098 10.5 17.3823 9.8905C16.3547 9.281 15.213 8.97625 13.9572 8.97625C12.7299 8.97625 11.5882 9.281 10.5321 9.8905C9.50459 10.5 8.67686 11.3034 8.04893 12.3008C7.421 13.2982 7.10703 14.4063 7.10703 15.6253C7.10703 16.8166 7.421 17.9248 8.04893 18.9499C8.67686 19.9472 9.50459 20.7507 10.5321 21.3602C11.5882 21.9697 12.7299 22.2744 13.9572 22.2744Z" fill="white"/>
<path d="M45.628 27.432C42.556 27.432 40.252 26.688 38.716 25.2C37.204 23.688 36.448 21.552 36.448 18.792V11.628C36.448 8.84399 37.204 6.70799 38.716 5.21999C40.252 3.73199 42.556 2.98799 45.628 2.98799C48.7 2.98799 50.992 3.73199 52.504 5.21999C54.04 6.70799 54.808 8.84399 54.808 11.628V18.792C54.808 21.552 54.04 23.688 52.504 25.2C50.992 26.688 48.7 27.432 45.628 27.432ZM45.628 24.228C47.452 24.228 48.832 23.76 49.768 22.824C50.704 21.864 51.172 20.484 51.172 18.684V11.736C51.172 9.91199 50.704 8.53199 49.768 7.59599C48.832 6.65999 47.452 6.19199 45.628 6.19199C43.828 6.19199 42.448 6.65999 41.488 7.59599C40.552 8.53199 40.084 9.91199 40.084 11.736V18.684C40.084 20.484 40.552 21.864 41.488 22.824C42.448 23.76 43.828 24.228 45.628 24.228Z" fill="white"/>
<path d="M67.0294 27.432C66.1654 27.432 65.2414 27.312 64.2574 27.072C63.2734 26.856 62.4694 26.544 61.8454 26.136L61.7734 23.184C62.4214 23.544 63.1414 23.832 63.9334 24.048C64.7254 24.24 65.4574 24.336 66.1294 24.336C67.4254 24.336 68.3614 23.964 68.9374 23.22C69.5374 22.452 69.8374 21.312 69.8374 19.8V15.912C69.8374 14.592 69.6094 13.632 69.1534 13.032C68.6974 12.408 68.0014 12.096 67.0654 12.096C66.2734 12.096 65.4694 12.336 64.6534 12.816C63.8374 13.272 62.8174 14.064 61.5934 15.192L61.4854 12.168C62.2534 11.448 62.9854 10.848 63.6814 10.368C64.3774 9.88799 65.0854 9.52799 65.8054 9.28799C66.5254 9.04799 67.2934 8.92799 68.1094 8.92799C69.8614 8.92799 71.1814 9.46799 72.0694 10.548C72.9814 11.628 73.4374 13.272 73.4374 15.48V20.196C73.4374 22.572 72.8854 24.372 71.7814 25.596C70.7014 26.82 69.1174 27.432 67.0294 27.432ZM59.1094 33.66C58.8454 33.66 58.7134 33.528 58.7134 33.264V13.536C58.7134 12.936 58.6894 12.3 58.6414 11.628C58.5934 10.956 58.5334 10.356 58.4614 9.82799C58.4374 9.51599 58.5694 9.35999 58.8574 9.35999H61.4134C61.6774 9.35999 61.8214 9.47999 61.8454 9.71999C61.8934 9.91199 61.9414 10.164 61.9894 10.476C62.0374 10.788 62.0734 11.1 62.0974 11.412C62.1214 11.7 62.1334 11.916 62.1334 12.06L62.3134 13.968V33.264C62.3134 33.528 62.1814 33.66 61.9174 33.66H59.1094Z" fill="white"/>
<path d="M84.0237 27.432C81.5757 27.432 79.7157 26.88 78.4437 25.776C77.1957 24.672 76.5717 23.028 76.5717 20.844V16.056C76.5717 13.728 77.1957 11.964 78.4437 10.764C79.6917 9.53999 81.5397 8.92799 83.9877 8.92799C86.4117 8.92799 88.2477 9.51599 89.4957 10.692C90.7437 11.868 91.3677 13.584 91.3677 15.84V18.648C91.3677 18.912 91.2477 19.044 91.0077 19.044H80.1717V20.196C80.1717 21.66 80.4837 22.728 81.1077 23.4C81.7317 24.072 82.7397 24.408 84.1317 24.408C85.1877 24.408 86.0037 24.24 86.5797 23.904C87.1557 23.568 87.4437 23.052 87.4437 22.356C87.4437 22.092 87.5877 21.96 87.8757 21.96H90.6477C90.8637 21.96 90.9957 22.08 91.0437 22.32C91.1397 23.928 90.5637 25.188 89.3157 26.1C88.0677 26.988 86.3037 27.432 84.0237 27.432ZM80.1717 16.308H87.8037V16.128C87.8037 14.688 87.4917 13.632 86.8677 12.96C86.2437 12.288 85.2957 11.952 84.0237 11.952C82.7277 11.952 81.7557 12.3 81.1077 12.996C80.4837 13.692 80.1717 14.736 80.1717 16.128V16.308Z" fill="white"/>
<path d="M106.647 27C106.383 27 106.251 26.868 106.251 26.604V15.3C106.251 14.196 106.023 13.392 105.567 12.888C105.135 12.36 104.451 12.096 103.515 12.096C102.627 12.096 101.751 12.36 100.887 12.888C100.023 13.392 98.9906 14.244 97.7906 15.444L97.7186 12.528C98.4866 11.712 99.2306 11.04 99.9506 10.512C100.671 9.98399 101.403 9.58799 102.147 9.32399C102.915 9.05999 103.719 8.92799 104.559 8.92799C106.287 8.92799 107.595 9.43199 108.483 10.44C109.395 11.424 109.851 12.912 109.851 14.904V26.604C109.851 26.868 109.731 27 109.491 27H106.647ZM95.2346 27C94.9706 27 94.8386 26.868 94.8386 26.604V13.824C94.8386 13.152 94.8026 12.444 94.7306 11.7C94.6826 10.932 94.6346 10.32 94.5866 9.86399C94.5386 9.52799 94.6706 9.35999 94.9826 9.35999H97.5386C97.7786 9.35999 97.9226 9.47999 97.9706 9.71999C98.0186 9.93599 98.0666 10.236 98.1146 10.62C98.1626 11.004 98.2106 11.412 98.2586 11.844C98.3066 12.276 98.3306 12.648 98.3306 12.96L98.4386 14.112V26.604C98.4386 26.868 98.3066 27 98.0426 27H95.2346Z" fill="white"/>
<path d="M122.87 27.432C119.894 27.432 117.626 26.7 116.066 25.236C114.506 23.748 113.726 21.6 113.726 18.792V11.664C113.726 8.83199 114.506 6.68399 116.066 5.21999C117.65 3.73199 119.93 2.98799 122.906 2.98799C124.85 2.98799 126.542 3.31199 127.982 3.95999C129.422 4.60799 130.49 5.54399 131.186 6.76799C131.906 7.96799 132.146 9.40799 131.906 11.088C131.882 11.232 131.846 11.352 131.798 11.448C131.75 11.544 131.654 11.592 131.51 11.592H128.63C128.366 11.592 128.246 11.46 128.27 11.196C128.342 9.61199 127.922 8.37599 127.01 7.48799C126.098 6.59999 124.742 6.15599 122.942 6.15599C121.142 6.15599 119.762 6.62399 118.802 7.55999C117.842 8.49599 117.362 9.86399 117.362 11.664V18.756C117.362 20.556 117.842 21.924 118.802 22.86C119.762 23.796 121.142 24.264 122.942 24.264C124.766 24.264 126.146 23.82 127.082 22.932C128.042 22.02 128.438 20.784 128.27 19.224C128.246 18.96 128.366 18.828 128.63 18.828H131.474C131.714 18.828 131.858 18.996 131.906 19.332C132.05 20.964 131.762 22.392 131.042 23.616C130.346 24.816 129.29 25.752 127.874 26.424C126.458 27.096 124.79 27.432 122.87 27.432Z" fill="white"/>
<path d="M142.558 27.432C140.086 27.432 138.19 26.832 136.87 25.632C135.55 24.432 134.89 22.62 134.89 20.196V16.164C134.89 13.74 135.538 11.928 136.834 10.728C138.154 9.52799 140.062 8.92799 142.558 8.92799C145.03 8.92799 146.914 9.52799 148.21 10.728C149.53 11.928 150.19 13.74 150.19 16.164V20.196C150.19 22.62 149.542 24.432 148.246 25.632C146.95 26.832 145.054 27.432 142.558 27.432ZM142.558 24.3C143.974 24.3 144.994 23.94 145.618 23.22C146.266 22.5 146.59 21.384 146.59 19.872V16.488C146.59 15 146.266 13.896 145.618 13.176C144.994 12.432 143.974 12.06 142.558 12.06C141.118 12.06 140.074 12.432 139.426 13.176C138.802 13.896 138.49 15 138.49 16.488V19.872C138.49 21.384 138.802 22.5 139.426 23.22C140.074 23.94 141.118 24.3 142.558 24.3Z" fill="white"/>
<path d="M165.493 27C165.229 27 165.097 26.868 165.097 26.604V15.3C165.097 14.196 164.869 13.392 164.413 12.888C163.981 12.36 163.297 12.096 162.361 12.096C161.473 12.096 160.597 12.36 159.733 12.888C158.869 13.392 157.837 14.244 156.637 15.444L156.565 12.528C157.333 11.712 158.077 11.04 158.797 10.512C159.517 9.98399 160.249 9.58799 160.993 9.32399C161.761 9.05999 162.565 8.92799 163.405 8.92799C165.133 8.92799 166.441 9.43199 167.329 10.44C168.241 11.424 168.697 12.912 168.697 14.904V26.604C168.697 26.868 168.577 27 168.337 27H165.493ZM154.081 27C153.817 27 153.685 26.868 153.685 26.604V13.824C153.685 13.152 153.649 12.444 153.577 11.7C153.529 10.932 153.481 10.32 153.433 9.86399C153.385 9.52799 153.517 9.35999 153.829 9.35999H156.385C156.625 9.35999 156.769 9.47999 156.817 9.71999C156.865 9.93599 156.913 10.236 156.961 10.62C157.009 11.004 157.057 11.412 157.105 11.844C157.153 12.276 157.177 12.648 157.177 12.96L157.285 14.112V26.604C157.285 26.868 157.153 27 156.889 27H154.081Z" fill="white"/>
<path d="M179.477 27.432C178.157 27.432 177.113 27.228 176.345 26.82C175.577 26.388 175.013 25.74 174.653 24.876C174.317 23.988 174.149 22.884 174.149 21.564V12.42H171.413C171.173 12.42 171.053 12.288 171.053 12.024V9.75599C171.053 9.49199 171.173 9.35999 171.413 9.35999H174.257L174.689 5.03999C174.713 4.79999 174.857 4.67999 175.121 4.67999H177.317C177.581 4.67999 177.713 4.79999 177.713 5.03999L177.749 9.35999H182.897C183.161 9.35999 183.293 9.49199 183.293 9.75599V12.024C183.293 12.288 183.161 12.42 182.897 12.42H177.749V21.42C177.749 22.476 177.929 23.232 178.289 23.688C178.673 24.12 179.321 24.336 180.233 24.336C180.689 24.336 181.145 24.288 181.601 24.192C182.081 24.072 182.501 23.928 182.861 23.76C183.173 23.64 183.329 23.736 183.329 24.048V26.388C183.329 26.604 183.233 26.748 183.041 26.82C182.585 26.988 182.057 27.132 181.457 27.252C180.881 27.372 180.221 27.432 179.477 27.432Z" fill="white"/>
<path d="M186.233 27C185.969 27 185.837 26.868 185.837 26.604V13.716C185.837 13.02 185.813 12.36 185.765 11.736C185.741 11.088 185.681 10.44 185.585 9.79199C185.537 9.50399 185.669 9.35999 185.981 9.35999H188.537C188.801 9.35999 188.945 9.47999 188.969 9.71999C189.065 10.152 189.137 10.656 189.185 11.232C189.233 11.808 189.257 12.3 189.257 12.708L189.437 14.688V26.604C189.437 26.868 189.305 27 189.041 27H186.233ZM189.041 16.02L188.897 12.744C189.401 12 189.977 11.352 190.625 10.8C191.273 10.224 191.933 9.76799 192.605 9.43199C193.277 9.09599 193.901 8.92799 194.477 8.92799C194.885 8.92799 195.209 8.96399 195.449 9.03599C195.641 9.10799 195.749 9.25199 195.773 9.46799C195.821 9.99599 195.833 10.56 195.809 11.16C195.809 11.736 195.773 12.288 195.701 12.816C195.653 13.104 195.485 13.212 195.197 13.14C195.029 13.092 194.837 13.056 194.621 13.032C194.405 13.008 194.177 12.996 193.937 12.996C193.361 12.996 192.785 13.128 192.209 13.392C191.633 13.632 191.069 13.98 190.517 14.436C189.989 14.868 189.497 15.396 189.041 16.02Z" fill="white"/>
<path d="M204.648 27.432C202.176 27.432 200.28 26.832 198.96 25.632C197.64 24.432 196.98 22.62 196.98 20.196V16.164C196.98 13.74 197.628 11.928 198.924 10.728C200.244 9.52799 202.152 8.92799 204.648 8.92799C207.12 8.92799 209.004 9.52799 210.3 10.728C211.62 11.928 212.28 13.74 212.28 16.164V20.196C212.28 22.62 211.632 24.432 210.336 25.632C209.04 26.832 207.144 27.432 204.648 27.432ZM204.648 24.3C206.064 24.3 207.084 23.94 207.708 23.22C208.356 22.5 208.68 21.384 208.68 19.872V16.488C208.68 15 208.356 13.896 207.708 13.176C207.084 12.432 206.064 12.06 204.648 12.06C203.208 12.06 202.164 12.432 201.516 13.176C200.892 13.896 200.58 15 200.58 16.488V19.872C200.58 21.384 200.892 22.5 201.516 23.22C202.164 23.94 203.208 24.3 204.648 24.3Z" fill="white"/>
<path d="M216.171 27C215.907 27 215.775 26.868 215.775 26.604V2.80799C215.775 2.54399 215.907 2.41199 216.171 2.41199H218.979C219.243 2.41199 219.375 2.54399 219.375 2.80799V26.604C219.375 26.868 219.243 27 218.979 27H216.171Z" fill="white"/>
</svg>
